# xmcd
#
# Track frame offsets:
#	150
#	22978
#	46101
#
# Disc length: 919 seconds
#
# Revision: 0
# Processed by: cddbd v1.4PL0 Copyright (c) Steve Scherf et al.
# Submitted via: dBpowerAMP V4.0
#
DISCID=16039503
DTITLE=Waylon Payne - Sampler
DYEAR=2003
DGENRE=Country
TTITLE0=Her
TTITLE1=Jesus On A Greyhound
TTITLE2=The Bottom
EXTD=
EXTT0=
EXTT1=
EXTT2=
PLAYORDER=
